<?xml version="1.0" encoding="UTF-8"?>
<!DOCTYPE svg PUBLIC "-//W3C//DTD SVG 1.1//EN" "http://www.w3.org/Graphics/SVG/1.1/DTD/svg11.dtd">
<!-- Creator: CorelDRAW -->
<svg xmlns="http://www.w3.org/2000/svg" xml:space="preserve" width="346.74mm" height="123.606mm" version="1.1" style="shape-rendering:geometricPrecision; text-rendering:geometricPrecision; image-rendering:optimizeQuality; fill-rule:evenodd; clip-rule:evenodd"
viewBox="0 0 9029.52 3218.84"
 xmlns:xlink="http://www.w3.org/1999/xlink"
 xmlns:xodm="http://www.corel.com/coreldraw/odm/2003">
 <defs>
  <style type="text/css">
   <![CDATA[
    .fil1 {fill:#3C89D6}
    .fil0 {fill:#EEEFEE}
    .fil3 {fill:black;fill-rule:nonzero}
    .fil2 {fill:#3C89D6;fill-rule:nonzero}
   ]]>
  </style>
 </defs>
 <g id="Camada_x0020_1">
  <metadata id="CorelCorpID_0Corel-Layer"/>
  <polygon class="fil0" points="3054.1,2309.35 9029.52,2309.35 8821.08,3218.84 3054.1,3218.84 "/>
  <g id="_2836571733968">
   <g>
    <g>
     <path class="fil1" d="M3602.02 937.8l0 -15.48c-39.89,-22.78 -18.95,-8.18 -50.81,-41.42l-293.93 -283.88c-103.23,-90.47 -253.73,-190.31 -387,-276.12 -293.31,-188.88 -574.34,-312.84 -1002.31,-320.52 -779.82,-14.01 -1541.87,363.71 -1867.98,773.51 54.95,78.49 127.04,140.68 185.94,215.01l186.81 204.47c49.51,-30.37 85.2,-83.55 138.2,-126.37 163.32,-131.97 252.59,-208.58 469.41,-306.2 567.51,-255.54 1115.74,-250.5 1636.74,81.72 72.94,46.51 148.93,103.66 220.71,164.38 100.84,-61.52 219.03,-85.08 339.99,-85.08 92.48,0 185.49,14.91 269.13,55.66 23.48,9.96 43.34,23.57 59.17,39.86l69.01 -60.06c20.72,-16.76 -0.84,-3.16 26.92,-19.49z"/>
     <path class="fil1" d="M1007.78 1915.32c32.99,33.74 55.8,64.6 79.81,101.21 47.09,-21.48 33.65,-22.97 83.92,-63.04l226.07 -168.93c108.87,-69.32 251.06,-132.18 412.92,-118.69 306.22,25.52 508.72,303.86 650.35,401.79l100.18 -89.15c-28.35,-67.49 -38.94,-143.04 -38.94,-218.22 0,-70.59 8.41,-141.9 20.73,-211.33 8.35,-47 18.87,-96.24 32.52,-145.38 -45.74,-38.6 -87.53,-71.51 -117.17,-92.12 -157.72,-109.67 -364.49,-187.8 -604.2,-199.1 -239.1,-11.27 -478.22,49.48 -661.17,143.56 -160.19,82.39 -378.69,246.2 -454.68,349.95l269.66 309.44z"/>
    </g>
    <path class="fil1" d="M1453.66 2957.98c50.17,8.85 92,16.89 123.28,45.65 11.59,10.65 10.02,10.12 31.11,9.44 14.52,-0.47 28.95,-0.07 43.48,-0.14l767.29 -7c110.44,-1.13 228.35,-6.12 338,-3.76l143.25 -2.03 -42.49 -89.88c-4.19,-5.67 -1.12,-2.29 -5.45,-5.69 -1.05,-14.95 -38.68,-68.03 -47.79,-81.15 -55.36,-79.74 -125.9,-138.06 -212.08,-186.12 -56.11,-31.3 -118.76,-75.53 -193.42,-68.4 -67.77,6.48 -141.08,43.67 -201.63,63.79 -32.81,10.89 -63.96,23.31 -96.32,34.04 -32.65,10.83 -66.02,28.03 -105.84,19.91 -75.95,-15.48 -103.59,-69.29 -203.37,-60.76 -53.14,4.55 -143.19,45.75 -197.88,67.07 -32.02,12.48 -63.78,23.35 -98.14,34.36 -33.55,10.74 -69.97,18.56 -102,29.3 -73.09,15.8 -149.11,39.48 -221.95,59.56 -32.96,8.85 -71.34,15.56 -105.06,22.56 -52.59,10.87 -94.93,17.74 -145.23,38.63 -44.42,18.45 -85.8,38.24 -127.11,63.01l169.02 0 51.2 0.66c72.08,1.29 145.52,3.49 218.11,6.3 73.91,2.85 148,4.26 221.03,10.64zm57.11 50.73c-7.55,16.84 -74.88,21.67 -95.78,24.79 -16.84,2.51 -32.63,6.25 -49.41,10.37 -15.08,3.71 -38.07,7.23 -39.19,22.15 11.25,0.06 25.8,-5.45 42.82,-5.56l349.87 -2.05c131.76,-1.06 263.98,-3.78 395.71,-3.77 4.62,0 773.29,-8.43 788.99,-11.97l0.29 -9.82c-11.38,-4.81 -1089.56,12.1 -1286.33,11.93 -40,-0.03 -157.76,3.27 -187.86,-0.24 23.16,-11.87 116.93,-4.46 98.12,-40.09 -15.54,-29.42 -176.58,-27.15 -214.2,-28.84 -50.6,-2.27 -349.47,-16.77 -375.03,-11.35 -1.55,16.53 5.17,12.43 22.62,12.96l260.65 9.78c49.88,1.76 100.29,3.35 149.49,5.55 31.86,1.42 123.3,-3.23 139.25,16.18zm-77.82 -278.57c39.94,0.68 117.23,-32.71 153.96,-46.73 49.02,-18.71 98.81,-37.68 147.57,-54.84 84.45,-29.72 129.48,-13.71 199.93,22.33 36.19,18.52 71.73,40.33 121.78,21.6 0.22,-12.79 -36.11,-135.27 -42.34,-156.52 -15.22,-51.93 -29.98,-104.72 -50.32,-152.58 -18.36,-43.2 -48.56,-99.85 -76.8,-125.49 -41,-37.22 -100.78,-45.78 -150.53,-13.08 -61.82,40.63 -99.33,105.24 -138.78,165.1 -14.02,21.28 -24.5,42.38 -37.22,64.11 -23.29,39.81 -125.44,243.2 -127.26,276.11z"/>
   </g>
   <g>
    <path class="fil2" d="M3445.01 3063.94c-48.45,0 -92.6,-9.96 -132.46,-29.9 -39.86,-19.93 -71.44,-49.37 -94.75,-88.31 -23.3,-38.94 -34.96,-86.62 -34.96,-143.04 0,-47.22 6.75,-92.45 20.24,-135.68 13.49,-43.23 33.73,-82.02 60.71,-116.36 26.98,-34.34 60.25,-61.63 99.81,-81.87 39.56,-20.24 85.09,-30.35 136.6,-30.35 40.48,0 76.5,6.59 108.09,19.78 31.58,13.18 58.11,32.96 79.57,59.33 21.46,26.37 37.1,59.49 46.91,99.35l-100.27 28.52c-7.97,-42.93 -23.61,-73.9 -46.92,-92.91 -23.3,-19.01 -54.58,-28.52 -93.83,-28.52 -34.34,0 -64.55,8.12 -90.61,24.38 -26.06,16.25 -47.84,37.41 -65.31,63.47 -17.48,26.06 -30.66,55.19 -39.55,87.39 -8.89,32.2 -13.34,64.55 -13.34,97.05 0,38.02 7.21,70.52 21.62,97.51 14.41,26.98 34.19,47.83 59.33,62.55 25.15,14.72 53.66,22.08 85.55,22.08 37.41,0 67,-8.28 88.77,-24.84 21.77,-16.56 40.01,-38.94 54.73,-67.15l91.99 40.48c-25.14,41.7 -57.03,74.97 -95.67,99.81 -38.63,24.84 -87.39,37.25 -146.26,37.25zm611.72 0c-47.22,0 -90.45,-10.27 -129.7,-30.81 -39.25,-20.54 -70.52,-50.9 -93.83,-91.07 -23.3,-40.17 -34.96,-88.46 -34.96,-144.88 0,-48.45 7.05,-94.14 21.16,-137.06 14.1,-42.93 34.34,-80.95 60.71,-114.07 26.37,-33.12 59.33,-59.33 98.89,-78.65 39.56,-19.32 84.78,-28.98 135.68,-28.98 47.22,0 90,10.42 128.33,31.28 38.33,20.85 68.99,51.05 91.99,90.61 23,39.55 34.49,87.85 34.49,144.88 0,47.84 -6.74,93.37 -20.24,136.6 -13.49,43.23 -33.57,81.41 -60.25,114.52 -26.68,33.12 -59.49,59.33 -98.43,78.65 -38.94,19.32 -83.56,28.98 -133.84,28.98zm7.36 -86.47c33.73,0 63.32,-7.82 88.77,-23.46 25.45,-15.64 46.76,-36.49 63.93,-62.55 17.17,-26.06 30.05,-55.35 38.63,-87.85 8.59,-32.5 12.88,-65.31 12.88,-98.43 0,-38.02 -6.75,-70.52 -20.24,-97.51 -13.49,-26.98 -32.35,-47.53 -56.57,-61.63 -24.22,-14.11 -52.59,-21.16 -85.09,-21.16 -33.73,0 -63.47,7.82 -89.23,23.46 -25.76,15.64 -47.37,36.49 -64.85,62.55 -17.48,26.06 -30.51,55.19 -39.09,87.39 -8.59,32.2 -12.88,65.16 -12.88,98.89 0,38.02 6.75,70.52 20.24,97.51 13.49,26.98 32.5,47.53 57.03,61.63 24.53,14.11 53.35,21.16 86.47,21.16zm377.15 77.27l140.74 -607.12 112.22 0 138.9 383.59 35.87 114.99 0.92 0 21.16 -106.71 91.07 -391.87 91.07 0 -140.74 607.12 -111.31 0 -141.66 -382.67 -34.96 -114.07 -0.92 0 -20.24 104.87 -91.07 391.87 -91.07 0zm665.99 0l140.74 -607.12 433.26 0 -20.24 84.63 -333.92 0 -40.48 174.78 262.17 0 -18.4 82.79 -262.17 0 -41.4 180.3 346.8 0 -20.24 84.63 -446.14 0zm861.93 9.2c-48.45,0 -92.6,-9.96 -132.46,-29.9 -39.86,-19.93 -71.44,-49.37 -94.75,-88.31 -23.3,-38.94 -34.96,-86.62 -34.96,-143.04 0,-47.22 6.75,-92.45 20.24,-135.68 13.49,-43.23 33.73,-82.02 60.71,-116.36 26.98,-34.34 60.25,-61.63 99.81,-81.87 39.56,-20.24 85.09,-30.35 136.6,-30.35 40.48,0 76.5,6.59 108.09,19.78 31.58,13.18 58.11,32.96 79.57,59.33 21.46,26.37 37.1,59.49 46.91,99.35l-100.27 28.52c-7.97,-42.93 -23.61,-73.9 -46.92,-92.91 -23.3,-19.01 -54.58,-28.52 -93.83,-28.52 -34.34,0 -64.55,8.12 -90.61,24.38 -26.06,16.25 -47.84,37.41 -65.31,63.47 -17.48,26.06 -30.66,55.19 -39.55,87.39 -8.89,32.2 -13.34,64.55 -13.34,97.05 0,38.02 7.21,70.52 21.62,97.51 14.41,26.98 34.19,47.83 59.33,62.55 25.15,14.72 53.66,22.08 85.55,22.08 37.41,0 67,-8.28 88.77,-24.84 21.77,-16.56 40.01,-38.94 54.73,-67.15l91.99 40.48c-25.14,41.7 -57.03,74.97 -95.67,99.81 -38.63,24.84 -87.39,37.25 -146.26,37.25zm890.45 -616.32l-20.24 84.63 -202.37 0 -120.5 522.49 -99.35 0 120.5 -522.49 -205.13 0 20.24 -84.63 506.85 0zm-170.18 607.12l364.27 -607.12 121.42 0 81.87 607.12 -95.67 0 -21.16 -164.66 -247.45 0 -95.67 164.66 -107.63 0zm250.21 -244.69l192.25 0 -34.96 -270.45 -157.3 270.45zm420.39 244.69l140.74 -607.12 187.66 0c53.35,0 98.89,10.58 136.6,31.74 37.72,21.16 66.54,50.44 86.47,87.85 19.93,37.41 29.9,80.34 29.9,128.78 0,51.51 -7.97,99.04 -23.92,142.58 -15.95,43.54 -38.94,81.56 -68.99,114.07 -30.05,32.5 -66.08,57.65 -108.09,75.43 -42.01,17.78 -88.77,26.68 -140.28,26.68l-240.09 0zm118.66 -83.71l127.86 0c36.18,0 68.68,-7.36 97.51,-22.08 28.82,-14.72 53.05,-34.65 72.67,-59.79 19.62,-25.15 34.65,-53.66 45.07,-85.55 10.42,-31.89 15.64,-65 15.64,-99.35 0,-33.11 -5.83,-62.7 -17.48,-88.77 -11.65,-26.06 -29.28,-46.61 -52.89,-61.63 -23.61,-15.02 -53.81,-22.54 -90.61,-22.54l-95.67 0 -102.11 439.7zm826.97 92.91c-47.22,0 -90.45,-10.27 -129.7,-30.81 -39.25,-20.54 -70.52,-50.9 -93.83,-91.07 -23.3,-40.17 -34.96,-88.46 -34.96,-144.88 0,-48.45 7.05,-94.14 21.16,-137.06 14.1,-42.93 34.34,-80.95 60.71,-114.07 26.37,-33.12 59.33,-59.33 98.89,-78.65 39.56,-19.32 84.78,-28.98 135.68,-28.98 47.22,0 90,10.42 128.33,31.28 38.33,20.85 68.99,51.05 91.99,90.61 23,39.55 34.49,87.85 34.49,144.88 0,47.84 -6.74,93.37 -20.24,136.6 -13.49,43.23 -33.57,81.41 -60.25,114.52 -26.68,33.12 -59.49,59.33 -98.43,78.65 -38.94,19.32 -83.56,28.98 -133.84,28.98zm7.36 -86.47c33.73,0 63.32,-7.82 88.77,-23.46 25.45,-15.64 46.76,-36.49 63.93,-62.55 17.17,-26.06 30.05,-55.35 38.63,-87.85 8.59,-32.5 12.88,-65.31 12.88,-98.43 0,-38.02 -6.75,-70.52 -20.24,-97.51 -13.49,-26.98 -32.35,-47.53 -56.57,-61.63 -24.22,-14.11 -52.59,-21.16 -85.09,-21.16 -33.73,0 -63.47,7.82 -89.23,23.46 -25.76,15.64 -47.37,36.49 -64.85,62.55 -17.48,26.06 -30.51,55.19 -39.09,87.39 -8.59,32.2 -12.88,65.16 -12.88,98.89 0,38.02 6.75,70.52 20.24,97.51 13.49,26.98 32.5,47.53 57.03,61.63 24.53,14.11 53.35,21.16 86.47,21.16z"/>
    <path class="fil3" d="M3102.34 1845.9c-57.06,0 -97.92,-10.16 -122.58,-30.47 -24.66,-20.31 -36.99,-56.57 -36.99,-108.8 0,-31.91 5.32,-77.37 15.96,-136.36 18.37,-106.38 44,-177.95 76.89,-214.7 32.88,-36.75 85.11,-55.12 156.67,-55.12 39.65,0 75.92,5.8 108.8,17.41 32.88,9.67 56.09,-0.97 69.63,-31.92l52.22 -134.91c12.57,-29.98 3.87,-50.77 -26.11,-62.38 -59.96,-29.98 -132.98,-44.97 -219.05,-44.97 -146.03,0 -259.67,38.93 -340.9,116.78 -81.24,77.85 -139.26,214.46 -174.08,409.81 -12.57,71.56 -18.86,134.91 -18.86,190.04 0,121.85 31.91,209.38 95.74,262.57 63.83,53.19 157.15,79.79 279.98,79.79 77.37,0 149.9,-15.47 217.6,-46.42 17.41,-7.74 29.74,-15.96 36.99,-24.66 7.26,-8.71 10.4,-21.28 9.43,-37.72l-5.8 -134.91c-2.9,-30.95 -22.24,-41.59 -58.02,-31.91 -39.65,12.57 -78.82,18.86 -117.51,18.86zm662.95 -169.73l129.11 -332.2 5.8 0 8.7 332.2 -143.61 0zm39.17 -616.53c-19.34,0 -33.85,3.87 -43.52,11.61 -9.67,7.74 -18.37,20.31 -26.11,37.72l-390.23 921.17c-6.77,17.41 -7.01,31.19 -0.73,41.34 6.29,10.15 17.65,15.23 34.09,15.23l203.09 0c28.05,0 48.84,-15.47 62.38,-46.42l44.97 -118.95 211.8 0 4.35 118.95c0,30.95 16.92,46.42 50.77,46.42l194.39 0c34.81,0 50.77,-18.86 47.87,-56.57l-65.28 -921.17c-2.9,-32.88 -22.73,-49.32 -59.48,-49.32l-268.37 0zm850.09 487.42l42.07 -236.46 71.08 0c33.85,0 57.79,5.08 71.81,15.23 14.02,10.16 21.04,27.8 21.04,52.95 0,13.54 -1.45,30.47 -4.35,50.77 -7.74,42.55 -20.79,72.77 -39.17,90.67 -18.37,17.89 -48.36,26.84 -89.94,26.84l-72.53 0zm-158.12 -487.42c-30.95,0 -49.32,16.44 -55.12,49.32l-163.92 928.42c-5.8,32.88 9.19,49.32 44.97,49.32l191.49 0c29.98,0 47.87,-16.44 53.67,-49.32l44.97 -253.86 56.58 0 81.24 262.57c7.74,27.08 29.01,40.62 63.83,40.62l181.33 0c18.37,0 30.71,-5.8 36.99,-17.41 6.29,-11.6 6.53,-26.11 0.72,-43.52l-101.54 -288.68c118.95,-53.19 191.49,-155.22 217.6,-306.09 7.74,-43.52 11.61,-80.27 11.61,-110.25 0,-93.81 -29.98,-160.78 -89.94,-200.92 -59.96,-40.14 -150.39,-60.2 -271.27,-60.2l-303.19 0zm651.35 977.74c-5.8,32.88 8.7,49.32 43.52,49.32l192.94 0c30.95,0 49.32,-16.44 55.12,-49.32l163.93 -928.42c5.8,-32.88 -8.71,-49.32 -43.52,-49.32l-192.94 0c-30.95,0 -49.32,16.44 -55.12,49.32l-163.92 928.42zm973.39 -993.7c-134.43,0 -240.08,39.17 -316.97,117.5 -76.88,78.33 -132.73,215.18 -167.55,410.54 -13.54,75.43 -20.31,139.26 -20.31,191.49 0,120.89 29.98,207.69 89.94,260.39 59.96,52.71 146.03,79.06 258.22,79.06 133.46,0 239.12,-39.17 316.97,-117.5 77.85,-78.34 133.7,-215.18 167.55,-410.54 13.54,-75.44 20.31,-139.26 20.31,-191.49 0,-120.89 -29.98,-207.68 -89.94,-260.39 -59.96,-52.71 -146.03,-79.06 -258.22,-79.06zm-126.21 805.11c-28.05,0 -48.84,-7.98 -62.38,-23.94 -13.54,-15.96 -20.31,-43.28 -20.31,-81.96 0,-31.91 6.77,-88.49 20.31,-169.73 19.34,-108.32 40.38,-181.33 63.1,-219.05 22.73,-37.72 54.88,-56.57 96.47,-56.57 28.05,0 48.84,7.98 62.38,23.93 13.54,15.96 20.31,43.28 20.31,81.96 0,31.92 -6.77,88.49 -20.31,169.73 -19.34,108.32 -40.62,181.33 -63.83,219.05 -23.21,37.72 -55.12,56.58 -95.74,56.58zm986.44 -2.9c-57.06,0 -97.92,-10.16 -122.58,-30.47 -24.66,-20.31 -36.99,-56.57 -36.99,-108.8 0,-31.91 5.32,-77.37 15.96,-136.36 18.37,-106.38 44,-177.95 76.89,-214.7 32.88,-36.75 85.11,-55.12 156.67,-55.12 39.65,0 75.92,5.8 108.8,17.41 32.88,9.67 56.09,-0.97 69.63,-31.92l52.22 -134.91c12.57,-29.98 3.87,-50.77 -26.11,-62.38 -59.96,-29.98 -132.98,-44.97 -219.05,-44.97 -146.03,0 -259.67,38.93 -340.9,116.78 -81.24,77.85 -139.26,214.46 -174.08,409.81 -12.57,71.56 -18.86,134.91 -18.86,190.04 0,121.85 31.91,209.38 95.74,262.57 63.83,53.19 157.15,79.79 279.98,79.79 77.37,0 149.9,-15.47 217.6,-46.42 17.41,-7.74 29.74,-15.96 36.99,-24.66 7.26,-8.71 10.4,-21.28 9.43,-37.72l-5.8 -134.91c-2.9,-30.95 -22.24,-41.59 -58.02,-31.91 -39.65,12.57 -78.82,18.86 -117.51,18.86zm662.95 -169.73l129.11 -332.2 5.8 0 8.7 332.2 -143.61 0zm39.17 -616.53c-19.34,0 -33.85,3.87 -43.52,11.61 -9.67,7.74 -18.37,20.31 -26.11,37.72l-390.23 921.17c-6.77,17.41 -7.01,31.19 -0.73,41.34 6.29,10.15 17.65,15.23 34.09,15.23l203.09 0c28.05,0 48.84,-15.47 62.38,-46.42l44.97 -118.95 211.8 0 4.35 118.95c0,30.95 16.92,46.42 50.77,46.42l194.39 0c34.81,0 50.77,-18.86 47.87,-56.57l-65.28 -921.17c-2.9,-32.88 -22.73,-49.32 -59.48,-49.32l-268.37 0z"/>
   </g>
  </g>
 </g>
</svg>
