<?xml version="1.0" encoding="UTF-8"?>
<!DOCTYPE svg PUBLIC "-//W3C//DTD SVG 1.1//EN" "http://www.w3.org/Graphics/SVG/1.1/DTD/svg11.dtd">
<!-- Creator: CorelDRAW -->
<svg xmlns="http://www.w3.org/2000/svg" xml:space="preserve" width="330.954mm" height="117.738mm" version="1.1" style="shape-rendering:geometricPrecision; text-rendering:geometricPrecision; image-rendering:optimizeQuality; fill-rule:evenodd; clip-rule:evenodd"
viewBox="0 0 8226.02 2926.43"
 xmlns:xlink="http://www.w3.org/1999/xlink"
 xmlns:xodm="http://www.corel.com/coreldraw/odm/2003">
 <defs>
  <style type="text/css">
   <![CDATA[
    .fil0 {fill:#3C89D6}
    .fil2 {fill:black;fill-rule:nonzero}
    .fil1 {fill:#3C89D6;fill-rule:nonzero}
   ]]>
  </style>
 </defs>
 <g id="Camada_x0020_1">
  <metadata id="CorelCorpID_0Corel-Layer"/>
  <g id="_2836055262832">
   <g>
    <g>
     <path class="fil0" d="M3438.02 895.1l0 -14.77c-38.07,-21.75 -18.09,-7.81 -48.5,-39.53l-280.54 -270.96c-98.53,-86.36 -242.18,-181.64 -369.38,-263.55 -279.96,-180.28 -548.19,-298.59 -956.67,-305.93 -744.32,-13.37 -1471.67,347.15 -1782.93,738.29 52.45,74.92 121.26,134.28 177.47,205.22l178.3 195.16c47.26,-28.99 81.32,-79.74 131.9,-120.61 155.88,-125.96 241.09,-199.08 448.04,-292.26 541.67,-243.91 1064.94,-239.1 1562.22,78 69.62,44.39 142.15,98.94 210.66,156.9 96.25,-58.72 209.06,-81.21 324.51,-81.21 88.27,0 177.04,14.23 256.88,53.12 22.41,9.5 41.36,22.49 56.48,38.04l65.87 -57.32c19.77,-15.99 -0.8,-3.02 25.7,-18.6z"/>
     <path class="fil0" d="M961.89 1828.12c31.49,32.21 53.26,61.66 76.18,96.61 44.94,-20.5 32.11,-21.93 80.09,-60.17l215.78 -161.24c103.91,-66.17 239.62,-126.16 394.12,-113.28 292.27,24.36 485.56,290.03 620.74,383.5l95.62 -85.09c-27.06,-64.42 -37.17,-136.53 -37.17,-208.29 0,-67.38 8.02,-135.44 19.79,-201.71 7.97,-44.86 18.01,-91.86 31.04,-138.76 -43.66,-36.85 -83.55,-68.25 -111.84,-87.92 -150.54,-104.68 -347.9,-179.25 -576.69,-190.04 -228.22,-10.76 -456.45,47.22 -631.07,137.03 -152.9,78.64 -361.45,234.99 -433.98,334.01l257.39 295.35z"/>
    </g>
    <path class="fil0" d="M1387.48 2823.3c47.89,8.45 87.81,16.12 117.67,43.57 11.06,10.17 9.57,9.66 29.69,9.01 13.86,-0.45 27.63,-0.06 41.5,-0.13l732.36 -6.68c105.41,-1.08 217.95,-5.84 322.61,-3.59l136.73 -1.93 -40.55 -85.79c-4,-5.42 -1.07,-2.19 -5.2,-5.43 -1.01,-14.27 -36.92,-64.93 -45.62,-77.46 -52.84,-76.11 -120.17,-131.77 -202.43,-177.65 -53.56,-29.87 -113.35,-72.09 -184.61,-65.29 -64.68,6.18 -134.65,41.68 -192.45,60.89 -31.32,10.39 -61.05,22.25 -91.94,32.49 -31.16,10.34 -63.01,26.75 -101.03,19 -72.49,-14.77 -98.88,-66.14 -194.11,-57.99 -50.72,4.34 -136.67,43.66 -188.87,64.02 -30.56,11.92 -60.87,22.29 -93.68,32.8 -32.02,10.25 -66.78,17.72 -97.35,27.96 -69.77,15.08 -142.33,37.68 -211.85,56.85 -31.46,8.45 -68.09,14.86 -100.27,21.54 -50.2,10.38 -90.6,16.93 -138.61,36.87 -42.4,17.61 -81.9,36.5 -121.32,60.15l161.33 0 48.87 0.63c68.8,1.23 138.9,3.34 208.18,6.01 70.55,2.72 141.26,4.07 210.97,10.16zm54.51 48.42c-7.21,16.08 -71.47,20.68 -91.42,23.66 -16.07,2.39 -31.15,5.96 -47.16,9.9 -14.39,3.54 -36.33,6.9 -37.4,21.14 10.74,0.06 24.62,-5.2 40.87,-5.31l333.94 -1.95c125.76,-1.01 251.96,-3.61 377.69,-3.6 4.41,0 738.08,-8.04 753.07,-11.43l0.28 -9.38c-10.86,-4.59 -1039.96,11.55 -1227.77,11.38 -38.18,-0.03 -150.58,3.12 -179.31,-0.23 22.11,-11.33 111.61,-4.25 93.65,-38.27 -14.83,-28.08 -168.54,-25.92 -204.45,-27.53 -48.29,-2.17 -333.56,-16.01 -357.96,-10.83 -1.48,15.78 4.94,11.86 21.59,12.37l248.78 9.33c47.61,1.68 95.72,3.2 142.68,5.3 30.41,1.36 117.69,-3.08 132.91,15.45zm-74.27 -265.89c38.12,0.65 111.89,-31.22 146.95,-44.61 46.79,-17.86 94.31,-35.97 140.85,-52.35 80.61,-28.37 123.59,-13.09 190.83,21.31 34.54,17.67 68.47,38.49 116.23,20.62 0.21,-12.21 -34.46,-129.11 -40.41,-149.39 -14.53,-49.57 -28.61,-99.95 -48.03,-145.64 -17.53,-41.24 -46.35,-95.31 -73.3,-119.78 -39.14,-35.52 -96.19,-43.69 -143.68,-12.48 -59,38.78 -94.81,100.45 -132.46,157.58 -13.38,20.31 -23.39,40.45 -35.52,61.19 -22.23,38 -119.72,232.13 -121.47,263.54z"/>
   </g>
   <g>
    <path class="fil1" d="M3288.16 2924.44c-46.24,0 -88.39,-9.51 -126.43,-28.53 -38.05,-19.02 -68.19,-47.12 -90.43,-84.29 -22.24,-37.17 -33.36,-82.68 -33.36,-136.53 0,-45.07 6.44,-88.24 19.32,-129.5 12.88,-41.27 32.19,-78.29 57.95,-111.07 25.75,-32.78 57.51,-58.83 95.26,-78.14 37.76,-19.32 81.22,-28.97 130.38,-28.97 38.63,0 73.02,6.29 103.17,18.88 30.14,12.58 55.46,31.46 75.95,56.63 20.49,25.17 35.41,56.78 44.78,94.82l-95.7 27.22c-7.61,-40.97 -22.54,-70.53 -44.78,-88.68 -22.24,-18.14 -52.09,-27.22 -89.55,-27.22 -32.78,0 -61.61,7.75 -86.48,23.27 -24.88,15.51 -45.66,35.7 -62.34,60.58 -16.68,24.88 -29.26,52.68 -37.75,83.41 -8.49,30.73 -12.73,61.61 -12.73,92.63 0,36.29 6.88,67.31 20.63,93.07 13.76,25.76 32.63,45.65 56.63,59.7 24,14.05 51.22,21.07 81.66,21.07 35.7,0 63.95,-7.9 84.73,-23.71 20.78,-15.8 38.19,-37.17 52.24,-64.09l87.8 38.63c-24,39.8 -54.44,71.56 -91.31,95.26 -36.88,23.71 -83.41,35.56 -139.6,35.56zm583.87 0c-45.07,0 -86.34,-9.8 -123.8,-29.41 -37.46,-19.61 -67.31,-48.58 -89.55,-86.92 -22.24,-38.34 -33.36,-84.43 -33.36,-138.28 0,-46.24 6.73,-89.85 20.19,-130.82 13.46,-40.97 32.78,-77.27 57.95,-108.87 25.17,-31.61 56.63,-56.63 94.38,-75.07 37.76,-18.44 80.92,-27.66 129.5,-27.66 45.07,0 85.9,9.95 122.48,29.85 36.58,19.9 65.85,48.73 87.8,86.48 21.95,37.75 32.92,83.85 32.92,138.28 0,45.66 -6.44,89.12 -19.32,130.38 -12.88,41.27 -32.05,77.7 -57.51,109.31 -25.46,31.61 -56.78,56.63 -93.95,75.07 -37.17,18.44 -79.75,27.66 -127.75,27.66zm7.02 -82.53c32.19,0 60.44,-7.46 84.73,-22.39 24.29,-14.93 44.63,-34.83 61.02,-59.7 16.39,-24.88 28.68,-52.83 36.88,-83.85 8.19,-31.02 12.29,-62.34 12.29,-93.95 0,-36.29 -6.44,-67.31 -19.32,-93.07 -12.88,-25.76 -30.88,-45.36 -54,-58.83 -23.12,-13.46 -50.19,-20.2 -81.22,-20.2 -32.19,0 -60.58,7.46 -85.16,22.39 -24.58,14.93 -45.22,34.83 -61.9,59.7 -16.68,24.88 -29.12,52.68 -37.31,83.41 -8.19,30.73 -12.29,62.19 -12.29,94.39 0,36.29 6.44,67.31 19.32,93.07 12.88,25.76 31.02,45.36 54.44,58.83 23.41,13.46 50.92,20.2 82.53,20.2zm359.98 73.75l134.33 -579.48 107.11 0 132.58 366.12 34.24 109.75 0.88 0 20.2 -101.85 86.92 -374.03 86.92 0 -134.33 579.48 -106.24 0 -135.21 -365.25 -33.36 -108.87 -0.88 0 -19.32 100.09 -86.92 374.03 -86.92 0zm635.67 0l134.33 -579.48 413.54 0 -19.32 80.78 -318.71 0 -38.63 166.82 250.23 0 -17.56 79.02 -250.23 0 -39.51 172.09 331.01 0 -19.32 80.78 -425.83 0zm822.69 8.78c-46.24,0 -88.39,-9.51 -126.43,-28.53 -38.05,-19.02 -68.19,-47.12 -90.43,-84.29 -22.24,-37.17 -33.36,-82.68 -33.36,-136.53 0,-45.07 6.44,-88.24 19.32,-129.5 12.88,-41.27 32.19,-78.29 57.95,-111.07 25.75,-32.78 57.51,-58.83 95.26,-78.14 37.76,-19.32 81.22,-28.97 130.38,-28.97 38.63,0 73.02,6.29 103.17,18.88 30.14,12.58 55.46,31.46 75.95,56.63 20.49,25.17 35.41,56.78 44.78,94.82l-95.7 27.22c-7.61,-40.97 -22.54,-70.53 -44.78,-88.68 -22.24,-18.14 -52.09,-27.22 -89.55,-27.22 -32.78,0 -61.61,7.75 -86.48,23.27 -24.88,15.51 -45.66,35.7 -62.34,60.58 -16.68,24.88 -29.26,52.68 -37.75,83.41 -8.49,30.73 -12.73,61.61 -12.73,92.63 0,36.29 6.88,67.31 20.63,93.07 13.76,25.76 32.63,45.65 56.63,59.7 24,14.05 51.22,21.07 81.66,21.07 35.7,0 63.95,-7.9 84.73,-23.71 20.78,-15.8 38.19,-37.17 52.24,-64.09l87.8 38.63c-24,39.8 -54.44,71.56 -91.31,95.26 -36.88,23.71 -83.41,35.56 -139.6,35.56zm849.9 -588.26l-19.32 80.78 -193.16 0 -115.02 498.7 -94.82 0 115.02 -498.7 -195.79 0 19.32 -80.78 483.78 0zm-162.43 579.48l347.69 -579.48 115.89 0 78.14 579.48 -91.31 0 -20.2 -157.16 -236.18 0 -91.31 157.16 -102.73 0zm238.82 -233.55l183.5 0 -33.36 -258.13 -150.14 258.13zm401.25 233.55l134.33 -579.48 179.11 0c50.92,0 94.38,10.1 130.38,30.29 36,20.19 63.51,48.14 82.53,83.85 19.02,35.7 28.53,76.68 28.53,122.92 0,49.17 -7.61,94.53 -22.83,136.09 -15.22,41.56 -37.17,77.85 -65.85,108.87 -28.68,31.02 -63.07,55.02 -103.17,72 -40.09,16.97 -84.73,25.46 -133.89,25.46l-229.16 0zm113.26 -79.9l122.04 0c34.53,0 65.56,-7.02 93.07,-21.07 27.51,-14.05 50.63,-33.07 69.36,-57.07 18.73,-24 33.07,-51.22 43.02,-81.66 9.95,-30.44 14.93,-62.04 14.93,-94.82 0,-31.61 -5.56,-59.85 -16.68,-84.73 -11.12,-24.88 -27.95,-44.48 -50.48,-58.83 -22.53,-14.34 -51.36,-21.51 -86.48,-21.51l-91.31 0 -97.46 419.68zm789.32 88.68c-45.07,0 -86.34,-9.8 -123.8,-29.41 -37.46,-19.61 -67.31,-48.58 -89.55,-86.92 -22.24,-38.34 -33.36,-84.43 -33.36,-138.28 0,-46.24 6.73,-89.85 20.19,-130.82 13.46,-40.97 32.78,-77.27 57.95,-108.87 25.17,-31.61 56.63,-56.63 94.38,-75.07 37.76,-18.44 80.92,-27.66 129.5,-27.66 45.07,0 85.9,9.95 122.48,29.85 36.58,19.9 65.85,48.73 87.8,86.48 21.95,37.75 32.92,83.85 32.92,138.28 0,45.66 -6.44,89.12 -19.32,130.38 -12.88,41.27 -32.05,77.7 -57.51,109.31 -25.46,31.61 -56.78,56.63 -93.95,75.07 -37.17,18.44 -79.75,27.66 -127.75,27.66zm7.02 -82.53c32.19,0 60.44,-7.46 84.73,-22.39 24.29,-14.93 44.63,-34.83 61.02,-59.7 16.39,-24.88 28.68,-52.83 36.88,-83.85 8.19,-31.02 12.29,-62.34 12.29,-93.95 0,-36.29 -6.44,-67.31 -19.32,-93.07 -12.88,-25.76 -30.88,-45.36 -54,-58.83 -23.12,-13.46 -50.19,-20.2 -81.22,-20.2 -32.19,0 -60.58,7.46 -85.16,22.39 -24.58,14.93 -45.22,34.83 -61.9,59.7 -16.68,24.88 -29.12,52.68 -37.31,83.41 -8.19,30.73 -12.29,62.19 -12.29,94.39 0,36.29 6.44,67.31 19.32,93.07 12.88,25.76 31.02,45.36 54.44,58.83 23.41,13.46 50.92,20.2 82.53,20.2z"/>
    <path class="fil2" d="M2961.1 1761.86c-54.46,0 -93.46,-9.69 -117,-29.08 -23.54,-19.38 -35.31,-54 -35.31,-103.85 0,-30.46 5.08,-73.85 15.23,-130.15 17.54,-101.54 42,-169.85 73.39,-204.92 31.38,-35.08 81.23,-52.61 149.54,-52.61 37.85,0 72.46,5.54 103.85,16.62 31.39,9.23 53.54,-0.92 66.46,-30.46l49.85 -128.77c12,-28.61 3.69,-48.46 -24.92,-59.54 -57.23,-28.62 -126.92,-42.92 -209.07,-42.92 -139.38,0 -247.85,37.15 -325.38,111.46 -77.54,74.31 -132.92,204.69 -166.15,391.15 -12,68.31 -18,128.77 -18,181.38 0,116.31 30.46,199.85 91.38,250.61 60.92,50.77 150,76.15 267.23,76.15 73.85,0 143.08,-14.77 207.69,-44.31 16.62,-7.38 28.39,-15.23 35.31,-23.54 6.92,-8.31 9.92,-20.31 9,-36l-5.54 -128.77c-2.77,-29.54 -21.23,-39.69 -55.38,-30.46 -37.85,12 -75.23,18 -112.16,18zm632.77 -162l123.23 -317.07 5.54 0 8.31 317.07 -137.08 0zm37.39 -588.46c-18.46,0 -32.31,3.69 -41.54,11.08 -9.23,7.38 -17.54,19.38 -24.92,36l-372.46 879.23c-6.46,16.61 -6.69,29.77 -0.69,39.46 6,9.69 16.85,14.54 32.54,14.54l193.85 0c26.77,0 46.61,-14.77 59.54,-44.31l42.92 -113.54 202.15 0 4.15 113.54c0,29.54 16.15,44.31 48.46,44.31l185.54 0c33.23,0 48.46,-18 45.69,-54l-62.31 -879.23c-2.77,-31.39 -21.69,-47.08 -56.77,-47.08l-256.15 0zm811.38 465.23l40.15 -225.69 67.85 0c32.31,0 55.15,4.85 68.54,14.54 13.38,9.69 20.08,26.54 20.08,50.54 0,12.92 -1.38,29.08 -4.15,48.46 -7.38,40.62 -19.85,69.46 -37.39,86.54 -17.54,17.08 -46.15,25.62 -85.85,25.62l-69.23 0zm-150.92 -465.23c-29.54,0 -47.08,15.69 -52.61,47.08l-156.46 886.15c-5.54,31.39 8.77,47.08 42.92,47.08l182.77 0c28.61,0 45.69,-15.69 51.23,-47.08l42.92 -242.31 54 0 77.54 250.61c7.38,25.85 27.69,38.77 60.92,38.77l173.08 0c17.54,0 29.31,-5.54 35.31,-16.62 6,-11.08 6.23,-24.92 0.69,-41.54l-96.92 -275.54c113.54,-50.77 182.77,-148.15 207.69,-292.15 7.38,-41.54 11.08,-76.62 11.08,-105.23 0,-89.54 -28.62,-153.46 -85.85,-191.77 -57.23,-38.31 -143.54,-57.46 -258.92,-57.46l-289.38 0zm621.69 933.23c-5.54,31.39 8.31,47.08 41.54,47.08l184.15 0c29.54,0 47.08,-15.69 52.61,-47.08l156.46 -886.15c5.54,-31.39 -8.31,-47.08 -41.54,-47.08l-184.15 0c-29.54,0 -47.08,15.69 -52.61,47.08l-156.46 886.15zm929.07 -948.46c-128.31,0 -229.15,37.38 -302.54,112.15 -73.38,74.77 -126.69,205.38 -159.92,391.84 -12.92,72 -19.38,132.92 -19.38,182.77 0,115.38 28.61,198.23 85.84,248.54 57.23,50.31 139.38,75.46 246.46,75.46 127.38,0 228.23,-37.39 302.54,-112.15 74.31,-74.77 127.62,-205.38 159.92,-391.84 12.92,-72 19.38,-132.92 19.38,-182.77 0,-115.38 -28.62,-198.23 -85.85,-248.54 -57.23,-50.31 -139.38,-75.46 -246.46,-75.46zm-120.46 768.46c-26.77,0 -46.61,-7.62 -59.54,-22.85 -12.92,-15.23 -19.38,-41.31 -19.38,-78.23 0,-30.46 6.46,-84.46 19.38,-162 18.46,-103.38 38.54,-173.08 60.23,-209.08 21.69,-36 52.39,-54 92.08,-54 26.77,0 46.62,7.62 59.54,22.84 12.92,15.23 19.38,41.31 19.38,78.23 0,30.46 -6.46,84.46 -19.38,162 -18.46,103.38 -38.77,173.08 -60.92,209.07 -22.15,36 -52.61,54 -91.38,54zm941.53 -2.77c-54.46,0 -93.46,-9.69 -117,-29.08 -23.54,-19.38 -35.31,-54 -35.31,-103.85 0,-30.46 5.08,-73.85 15.23,-130.15 17.54,-101.54 42,-169.85 73.39,-204.92 31.38,-35.08 81.23,-52.61 149.54,-52.61 37.85,0 72.46,5.54 103.85,16.62 31.39,9.23 53.54,-0.92 66.46,-30.46l49.85 -128.77c12,-28.61 3.69,-48.46 -24.92,-59.54 -57.23,-28.62 -126.92,-42.92 -209.07,-42.92 -139.38,0 -247.85,37.15 -325.38,111.46 -77.54,74.31 -132.92,204.69 -166.15,391.15 -12,68.31 -18,128.77 -18,181.38 0,116.31 30.46,199.85 91.38,250.61 60.92,50.77 150,76.15 267.23,76.15 73.85,0 143.08,-14.77 207.69,-44.31 16.62,-7.38 28.39,-15.23 35.31,-23.54 6.92,-8.31 9.92,-20.31 9,-36l-5.54 -128.77c-2.77,-29.54 -21.23,-39.69 -55.38,-30.46 -37.85,12 -75.23,18 -112.16,18zm632.77 -162l123.23 -317.07 5.54 0 8.31 317.07 -137.08 0zm37.39 -588.46c-18.46,0 -32.31,3.69 -41.54,11.08 -9.23,7.38 -17.54,19.38 -24.92,36l-372.46 879.23c-6.46,16.61 -6.69,29.77 -0.69,39.46 6,9.69 16.85,14.54 32.54,14.54l193.85 0c26.77,0 46.61,-14.77 59.54,-44.31l42.92 -113.54 202.15 0 4.15 113.54c0,29.54 16.15,44.31 48.46,44.31l185.54 0c33.23,0 48.46,-18 45.69,-54l-62.31 -879.23c-2.77,-31.39 -21.69,-47.08 -56.77,-47.08l-256.15 0z"/>
   </g>
  </g>
 </g>
</svg>
